<svg width="53" height="51" viewBox="0 0 53 51" fill="none" xmlns="http://www.w3.org/2000/svg">
<path d="M5.11378 11.9059L45.9599 0.925847C46.8549 0.691953 47.7964 0.712138 48.6803 0.984172C49.5642 1.25621 50.356 1.76949 50.9682 2.4673C51.5805 3.16511 51.9893 4.02025 52.1495 4.93821C52.3097 5.85617 52.2151 6.8012 51.8761 7.66883L36.1033 47.2263C35.7127 48.2158 35.0224 49.056 34.1308 49.6271C33.2393 50.1982 32.192 50.471 31.1383 50.4067C30.0846 50.3424 29.0783 49.9442 28.2628 49.269C27.4473 48.5937 26.8643 47.6758 26.5969 46.6461L22.5175 31.2021C22.3192 30.4328 21.9437 29.7218 21.4216 29.1267C20.8994 28.5316 20.2453 28.0692 19.5124 27.7771L4.81034 21.8148C3.68224 21.5509 2.67997 20.9011 1.9739 19.9758C1.26782 19.0505 0.901535 17.9068 0.937291 16.7392C0.973046 15.5716 1.40864 14.452 2.17003 13.5709C2.93142 12.6898 3.97161 12.1014 5.11378 11.9059Z" fill="white"/>
</svg>
