<svg width="62" height="62" viewBox="0 0 62 62" fill="none" xmlns="http://www.w3.org/2000/svg">
<path d="M15.1702 30.3404C15.1702 38.3544 19.0285 44.8511 27.0425 44.8511C31 40.8936 32.9522 37.501 33.6383 31.6596C33.7255 23.7635 31 21.1064 26.3829 17.8085C21.1063 17.8085 15.8297 21.7659 15.1702 30.3404Z" fill="#000D26"/>
<path d="M31.0002 10.093C30.4289 10.0856 29.8831 9.85529 29.4791 9.4513C29.0751 9.0473 28.8449 8.50152 28.8374 7.93023V2.16279C28.8374 1.58918 29.0653 1.03907 29.4709 0.633467C29.8765 0.227865 30.4266 0 31.0002 0C31.5738 0 32.1239 0.227865 32.5295 0.633467C32.9351 1.03907 33.163 1.58918 33.163 2.16279V7.93023C33.1555 8.50152 32.9253 9.0473 32.5213 9.4513C32.1173 9.85529 31.5715 10.0856 31.0002 10.093Z" fill="#000D26"/>
<path d="M14.6778 16.8412C14.3936 16.8425 14.1121 16.7871 13.8496 16.6782C13.5872 16.5692 13.3491 16.4089 13.1494 16.2068L9.08339 12.1407C8.8709 11.9427 8.70046 11.7039 8.58225 11.4386C8.46404 11.1733 8.40048 10.887 8.39536 10.5966C8.39023 10.3062 8.44365 10.0177 8.55243 9.74839C8.66121 9.47909 8.82311 9.23445 9.02849 9.02907C9.23386 8.8237 9.4785 8.66179 9.7478 8.55302C10.0171 8.44424 10.3056 8.39082 10.596 8.39594C10.8864 8.40107 11.1728 8.46463 11.4381 8.58284C11.7034 8.70105 11.9421 8.87148 12.1401 9.08398L16.2062 13.15C16.4102 13.3488 16.5724 13.5865 16.6831 13.849C16.7938 14.1115 16.8509 14.3935 16.8509 14.6784C16.8509 14.9633 16.7938 15.2453 16.6831 15.5078C16.5724 15.7703 16.4102 16.0079 16.2062 16.2068C16.0096 16.413 15.7721 16.576 15.5089 16.6853C15.2458 16.7945 14.9627 16.8476 14.6778 16.8412Z" fill="#000D26"/>
<path d="M7.93023 33.1628H2.16279C1.58918 33.1628 1.03907 32.9349 0.633467 32.5293C0.227865 32.1237 0 31.5736 0 31C0 30.4264 0.227865 29.8763 0.633467 29.4707C1.03907 29.0651 1.58918 28.8372 2.16279 28.8372H7.93023C8.50384 28.8372 9.05396 29.0651 9.45956 29.4707C9.86516 29.8763 10.093 30.4264 10.093 31C10.093 31.5736 9.86516 32.1237 9.45956 32.5293C9.05396 32.9349 8.50384 33.1628 7.93023 33.1628Z" fill="#000D26"/>
<path d="M10.6121 53.5507C10.3277 53.5537 10.0456 53.499 9.78292 53.39C9.52024 53.2809 9.28237 53.1198 9.08369 52.9163C8.67867 52.5107 8.45117 51.961 8.45117 51.3879C8.45117 50.8148 8.67867 50.2651 9.08369 49.8595L13.1497 45.7935C13.5597 45.4114 14.102 45.2035 14.6623 45.2133C15.2226 45.2232 15.7572 45.4502 16.1535 45.8465C16.5497 46.2427 16.7767 46.7773 16.7866 47.3376C16.7965 47.898 16.5885 48.4402 16.2065 48.8502L12.1404 52.9163C11.9408 53.1185 11.7027 53.2787 11.4402 53.3877C11.1778 53.4966 10.8962 53.552 10.6121 53.5507Z" fill="#000D26"/>
<path d="M31.0002 62C30.4289 61.9925 29.8831 61.7623 29.4791 61.3583C29.0751 60.9543 28.8449 60.4085 28.8374 59.8372V54.0698C28.8374 53.4962 29.0653 52.946 29.4709 52.5404C29.8765 52.1348 30.4266 51.907 31.0002 51.907C31.5738 51.907 32.1239 52.1348 32.5295 52.5404C32.9351 52.946 33.163 53.4962 33.163 54.0698V59.8372C33.1555 60.4085 32.9253 60.9543 32.5213 61.3583C32.1173 61.7623 31.5715 61.9925 31.0002 62Z" fill="#000D26"/>
<path d="M51.388 53.5507C51.1039 53.552 50.8223 53.4966 50.5598 53.3877C50.2974 53.2787 50.0593 53.1185 49.8597 52.9163L45.7936 48.8502C45.4116 48.4402 45.2036 47.898 45.2135 47.3376C45.2234 46.7773 45.4503 46.2427 45.8466 45.8465C46.2429 45.4502 46.7775 45.2232 47.3378 45.2133C47.8981 45.2035 48.4404 45.4114 48.8503 45.7935L52.9164 49.8595C53.3214 50.2651 53.5489 50.8148 53.5489 51.3879C53.5489 51.961 53.3214 52.5107 52.9164 52.9163C52.7177 53.1198 52.4798 53.2809 52.2172 53.39C51.9545 53.499 51.6724 53.5537 51.388 53.5507Z" fill="#000D26"/>
<path d="M59.8372 33.1628H54.0698C53.4962 33.1628 52.946 32.9349 52.5404 32.5293C52.1348 32.1237 51.907 31.5736 51.907 31C51.907 30.4264 52.1348 29.8763 52.5404 29.4707C52.946 29.0651 53.4962 28.8372 54.0698 28.8372H59.8372C60.4108 28.8372 60.9609 29.0651 61.3665 29.4707C61.7721 29.8763 62 30.4264 62 31C62 31.5736 61.7721 32.1237 61.3665 32.5293C60.9609 32.9349 60.4108 33.1628 59.8372 33.1628Z" fill="#000D26"/>
<path d="M47.322 16.8412C47.0371 16.8476 46.7541 16.7945 46.4909 16.6853C46.2277 16.576 45.9902 16.413 45.7936 16.2068C45.5896 16.0079 45.4274 15.7703 45.3167 15.5078C45.206 15.2453 45.1489 14.9633 45.1489 14.6784C45.1489 14.3935 45.206 14.1115 45.3167 13.849C45.4274 13.5865 45.5896 13.3488 45.7936 13.15L49.8597 9.08398C50.0577 8.87148 50.2965 8.70105 50.5618 8.58284C50.8271 8.46463 51.1135 8.40107 51.4039 8.39594C51.6943 8.39082 51.9827 8.44424 52.252 8.55302C52.5213 8.66179 52.766 8.8237 52.9713 9.02907C53.1767 9.23445 53.3386 9.47909 53.4474 9.74839C53.5562 10.0177 53.6096 10.3062 53.6045 10.5966C53.5993 10.887 53.5358 11.1733 53.4176 11.4386C53.2994 11.7039 53.1289 11.9427 52.9164 12.1407L48.8504 16.2068C48.6507 16.4089 48.4127 16.5692 48.1502 16.6782C47.8877 16.7871 47.6062 16.8425 47.322 16.8412Z" fill="#000D26"/>
<path d="M31.9837 44.2958C33.9852 44.7453 36.0625 44.7354 38.0596 44.2667C40.0567 43.7981 41.9216 42.8828 43.5141 41.5898C45.1066 40.2968 46.3853 38.6596 47.2542 36.8014C48.123 34.9431 48.5593 32.9121 48.5304 30.861C48.5014 28.8099 48.008 26.792 47.087 24.959C46.1661 23.126 44.8417 21.5255 43.2134 20.278C41.585 19.0304 39.695 18.1682 37.6855 17.756C35.676 17.3439 33.5992 17.3926 31.6113 17.8984C31.449 17.9549 31.3071 18.0581 31.2032 18.1949C31.0994 18.3317 31.0382 18.4962 31.0275 18.6676C31.0167 18.8391 31.0568 19.0099 31.1428 19.1586C31.2287 19.3074 31.3566 19.4274 31.5105 19.5038C34.4045 21.2529 36.5651 23.9931 37.5908 27.2154C38.3452 29.6197 38.3815 32.1919 37.6952 34.6165C36.8047 37.9387 34.7188 40.8152 31.8378 42.6939C31.6861 42.7746 31.5616 42.8982 31.4799 43.0493C31.3982 43.2004 31.3629 43.3723 31.3785 43.5434C31.3941 43.7144 31.4598 43.8771 31.5675 44.0109C31.6752 44.1448 31.82 44.2439 31.9837 44.2958Z" fill="#000D26"/>
</svg>
